<svg version="1.1" id="Layer_1" xmlns="http://www.w3.org/2000/svg" xmlns:xlink="http://www.w3.org/1999/xlink" x="0px" y="0px" style="enable-background:new 0 0 841.9 595.3;" xml:space="preserve" viewBox="50.41 184.61 741.09 213.63">
<style type="text/css">
	.st0{fill:none;stroke:#ffffff;stroke-width:12.4855;stroke-miterlimit:10;}
	.st1{fill:#00A651;}
</style>
<g>
	<g>
		<rect x="62.9" y="197.1" class="st0" width="716.1" height="137.4" fill="#ffffff"/>
		<g>
			<path d="M143,279.2c0,5.9-1.7,10.5-5.2,14s-8.7,5.2-15.7,5.2c-2.3,0-4.5-0.2-6.5-0.6c-2-0.4-3.8-0.9-5.5-1.6l1.4-14.2     c1,0.7,2.2,1.3,3.5,1.8c1.3,0.5,2.6,0.7,3.8,0.7c1.9,0,3.3-0.6,4.4-1.7c1.1-1.1,1.6-2.9,1.6-5.5v-42.7H143V279.2z" fill="#ffffff"/>
			<path d="M152.8,234.5h42.6l-1.5,13.5H171v10.1h18.1v13.5H171v11.9h24.9v13.5h-43.1V234.5z" fill="#ffffff"/>
			<path d="M203,234.5h18.3v49h23.2v13.6H203V234.5z" fill="#ffffff"/>
			<path d="M250.5,234.5h18.3v49h23.2v13.6h-41.4V234.5z" fill="#ffffff"/>
			<path d="M298,234.5h42.6l-1.5,13.5h-22.8v10.1h18.1v13.5h-18.1v11.9h24.9v13.5H298V234.5z" fill="#ffffff"/>
			<path d="M368,234.5h18.3V259c2.9-4.1,5.8-8.1,8.6-12.2c2.8-4.1,5.6-8.2,8.4-12.3h21.8c-3.7,4.8-7.3,9.6-10.9,14.3     c-3.6,4.8-7.4,9.5-11.2,14.3c4.2,5.7,8.4,11.4,12.4,17c4,5.7,8.1,11.3,12.1,17h-22.9c-3-4.6-6-9.3-9-14.1     c-3-4.8-6.1-9.5-9.3-14.2v28.3H368V234.5z" fill="#ffffff"/>
			<path d="M465.1,234.5h18v40.8c0,7.2-2.3,12.8-6.8,16.8c-4.5,4.1-10.8,6.1-18.9,6.1c-8.1,0-14.5-2-19-6.1     c-4.6-4.1-6.8-9.7-6.8-16.8v-40.8h18.3V274c0,7.1,2.5,10.7,7.5,10.7c5.2,0,7.8-3.1,7.8-9.3V234.5z" fill="#ffffff"/>
			<path d="M492.6,234.5h18.3v62.7h-18.3V234.5z" fill="#ffffff"/>
			<path d="M520.9,234.5H541c5.5,0,10.4,0.8,14.6,2.3c4.2,1.5,7.5,3.8,9.9,6.9c2.4,3.1,3.6,6.9,3.6,11.6c0,4.7-1.2,8.6-3.6,11.6     c-2.4,3.1-5.7,5.4-9.9,6.9c-4.2,1.5-9.1,2.3-14.6,2.3h-1.9v21.1h-18.3V234.5z M548.1,260.9c1.6-1.3,2.4-3.2,2.4-5.5     c0-2.4-0.8-4.2-2.4-5.5c-1.6-1.3-3.7-2-6.2-2h-2.8v15.1h2.8C544.5,262.9,546.5,262.2,548.1,260.9z" fill="#ffffff"/>
			<path d="M576.4,234.5H619l-1.5,13.5h-22.8v10.1h18.1v13.5h-18.1v11.9h24.9v13.5h-43.1V234.5z" fill="#ffffff"/>
			<path d="M626.7,234.5h20.1c5.5,0,10.4,0.7,14.6,2c4.2,1.4,7.5,3.4,9.9,6c2.4,2.7,3.6,6,3.6,10c0,3.5-0.9,6.4-2.8,8.8     c-1.9,2.4-4.5,4.2-7.9,5.5c3.2,1.8,6.1,5.1,8.9,9.8s5.7,11.5,8.7,20.3h-20.6c-1.7-5.1-3.3-9.1-4.7-12.1c-1.4-3-2.7-5.3-4-6.8     c-1.2-1.5-2.5-2.5-3.7-3c-1.2-0.5-2.5-0.7-3.8-0.8v22.7h-18.3V234.5z M654.4,259.9c1.6-1.4,2.5-3.1,2.5-5.3c0-2.1-0.8-3.8-2.5-5     c-1.6-1.2-3.9-1.8-6.7-1.8h-2.8V262h2.8C650.5,262,652.7,261.3,654.4,259.9z" fill="#ffffff"/>
			<path d="M686.6,278.3c2.3,1.7,5,3.2,8.1,4.3c3.1,1.1,6.2,1.7,9.5,1.7c3,0,5.3-0.5,6.9-1.4c1.6-0.9,2.4-2.2,2.4-3.9     c0-1-0.3-1.8-1-2.4c-0.6-0.6-1.8-1.3-3.5-1.9c-1.7-0.6-4-1.4-7.1-2.3c-4.2-1.2-7.5-2.8-9.8-4.6c-2.4-1.8-4.1-3.9-5.1-6.3     c-1-2.3-1.5-4.9-1.5-7.6c0-4.2,1-7.9,3-10.9c2-3.1,4.8-5.4,8.5-7.1c3.7-1.7,8-2.5,13.1-2.5c3.6,0,7.1,0.4,10.7,1.2     c3.6,0.8,6.5,1.9,8.8,3.3l-4.1,13.7c-1.8-1.5-3.9-2.6-6.2-3.5c-2.3-0.8-4.8-1.3-7.4-1.3c-2.5,0-4.5,0.4-6,1.3     c-1.4,0.8-2.2,2-2.2,3.5c0,1.4,0.7,2.4,2.1,3.2c1.4,0.8,3.8,1.7,7.2,2.6c5.1,1.4,9,3.1,11.7,5c2.7,1.9,4.6,4,5.6,6.4     s1.6,4.9,1.6,7.7c0,4.5-1.1,8.4-3.2,11.6c-2.1,3.2-5.2,5.7-9.1,7.5c-3.9,1.7-8.6,2.6-14,2.6c-3.7,0-7.3-0.4-11-1.2     c-3.7-0.8-6.8-1.9-9.4-3.3L686.6,278.3z" fill="#ffffff"/>
		</g>
	</g>
	<path d="M258.6,378.4l-5.2,19.2h-7.8c-1.6-5.3-3.2-10.6-4.8-15.9c-1.6-5.3-3.1-10.6-4.5-15.9h9.2c1.4,5.9,2.9,11.9,4.4,17.8   l4.6-16.9h8.6l4.6,16.7c0.8-2.9,1.5-5.8,2.3-8.8c0.8-2.9,1.5-5.8,2.2-8.8h8.8c-1.5,5.3-3,10.6-4.5,15.9s-3.1,10.6-4.8,15.9h-7.8   L258.6,378.4z" fill="#ffffff"/>
	<path d="M284.2,365.7h21.7l-0.8,6.9h-11.6v5.2h9.2v6.9h-9.2v6.1h12.6v6.9h-21.9V365.7z" fill="#ffffff"/>
	<path d="M309.7,365.7h11.2c2.6,0,4.9,0.3,6.8,0.9c2,0.6,3.5,1.5,4.6,2.7c1.1,1.2,1.6,2.7,1.6,4.4c0,1.6-0.5,3.1-1.5,4.4   c-1,1.3-2.4,2.2-4.1,2.8c2.3,0.4,4,1.3,5.3,2.6c1.3,1.3,1.9,3,1.9,5c0,2-0.6,3.6-1.8,5c-1.2,1.3-2.8,2.4-4.9,3   c-2.1,0.7-4.5,1-7.3,1h-11.9V365.7z M320.9,378c1.3,0,2.3-0.2,3.1-0.7c0.7-0.5,1.1-1.2,1.1-2c0-0.9-0.4-1.6-1.1-2.1   c-0.7-0.5-1.8-0.7-3.1-0.7h-2.1v5.5H320.9z M318.8,390.8h2.8c1.5,0,2.6-0.3,3.4-0.8s1.2-1.3,1.2-2.3c0-1-0.4-1.7-1.2-2.3   s-1.9-0.8-3.4-0.8h-2.8V390.8z" fill="#ffffff"/>
	<path d="M348.6,365.7h9.9c4.1,0,7.4,0.7,10.1,2c2.7,1.4,4.6,3.2,6,5.6c1.3,2.4,2,5.1,2,8.2c0,3.1-0.7,5.8-2,8.2   c-1.3,2.4-3.3,4.3-6,5.7c-2.7,1.4-6,2.1-10.1,2.1h-9.9V365.7z M357.9,372.6v18.1h2.4c2.4,0,4.1-0.8,5.1-2.4c1-1.6,1.6-3.8,1.6-6.6   c0-2.8-0.5-5-1.6-6.6c-1-1.6-2.8-2.4-5.1-2.4H357.9z" fill="#ffffff"/>
	<path d="M380.6,365.7h21.7l-0.8,6.9h-11.6v5.2h9.2v6.9h-9.2v6.1h12.6v6.9h-21.9V365.7z" fill="#ffffff"/>
	<path d="M440.6,365.7h21.7l-0.8,6.9h-11.6v5.2h9.2v6.9h-9.2v6.1h12.6v6.9h-21.9V365.7z" fill="#ffffff"/>
	<path d="M466.2,365.7h9.3v24.9h11.8v6.9h-21.1V365.7z" fill="#ffffff"/>
	<path d="M490.3,390c-1.1-2.5-1.7-5.5-1.7-8.8c0-3.2,0.6-5.9,1.7-8.4c1.2-2.4,2.9-4.3,5.2-5.7c2.3-1.4,5.1-2.1,8.6-2.1   s6.3,0.7,8.6,2.1c2.3,1.4,4,3.3,5.2,5.7c1.2,2.4,1.7,5.2,1.7,8.4c0,3.3-0.6,6.2-1.7,8.8c-1.1,2.5-2.8,4.5-5.1,6   c-2.3,1.4-5.2,2.2-8.6,2.2s-6.4-0.7-8.6-2.2C493.2,394.5,491.4,392.6,490.3,390z M510,381.3c0-2.9-0.5-5.2-1.5-6.8   c-1-1.6-2.5-2.5-4.4-2.5c-1.9,0-3.4,0.8-4.4,2.5c-1,1.7-1.5,3.9-1.5,6.8c0,3.1,0.5,5.5,1.5,7.3c1,1.8,2.5,2.7,4.4,2.7   c1.9,0,3.4-0.9,4.4-2.7S510,384.3,510,381.3z" fill="#ffffff"/>
	<path d="M523.8,365.7H534c2.8,0,5.3,0.4,7.4,1.2c2.1,0.8,3.8,1.9,5,3.5c1.2,1.6,1.8,3.5,1.8,5.9c0,2.4-0.6,4.4-1.8,5.9   c-1.2,1.6-2.9,2.7-5,3.5c-2.1,0.8-4.6,1.2-7.4,1.2h-0.9v10.7h-9.3V365.7z M537.7,379.1c0.8-0.7,1.2-1.6,1.2-2.8   c0-1.2-0.4-2.1-1.2-2.8c-0.8-0.7-1.9-1-3.2-1h-1.4v7.7h1.4C535.8,380.1,536.9,379.8,537.7,379.1z" fill="#ffffff"/>
	<path d="M552.1,365.7h21.7l-0.8,6.9h-11.6v5.2h9.2v6.9h-9.2v6.1H574v6.9h-21.9V365.7z" fill="#ffffff"/>
	<path d="M577.6,365.7h10.2c2.8,0,5.3,0.3,7.4,1c2.1,0.7,3.8,1.7,5,3.1c1.2,1.4,1.8,3.1,1.8,5.1c0,1.8-0.5,3.3-1.4,4.5   c-0.9,1.2-2.3,2.2-4,2.8c1.6,0.9,3.1,2.6,4.5,5c1.4,2.4,2.9,5.9,4.4,10.3h-10.5c-0.9-2.6-1.7-4.6-2.4-6.2c-0.7-1.5-1.4-2.7-2-3.5   c-0.6-0.8-1.3-1.3-1.9-1.5c-0.6-0.2-1.3-0.4-2-0.4v11.6h-9.3V365.7z M591.7,378.6c0.8-0.7,1.2-1.6,1.2-2.7s-0.4-1.9-1.2-2.6   c-0.8-0.6-2-0.9-3.4-0.9h-1.4v7.2h1.4C589.7,379.7,590.9,379.3,591.7,378.6z" fill="#ffffff"/>
	<path class="st1" d="M416.9,397.6" fill="#ffffff"/>
	<g>
		<rect x="418.5" y="357" width="6.1" height="16.3" fill="#ffffff"/>
		<path d="M421.6,397.6l16.7-31.9c-5.6,1.9-11.1,3.7-16.7,5.6c-5.6-1.9-11.2-3.7-16.7-5.6L421.6,397.6z" fill="#ffffff"/>
	</g>
</g>
</svg>